<svg width="166" height="38" viewBox="0 0 166 38" fill="none" xmlns="http://www.w3.org/2000/svg">
    <path d="M37.7422 3.25098H45.3873C49.2583 3.25098 51.8712 6.39635 51.8712 9.44642C51.8712 12.5918 49.2583 15.7372 45.3873 15.7372H40.6454V20.7888H37.7422V3.25098ZM45.097 13.0684C47.6131 13.0684 48.968 11.1621 48.968 9.44642C48.968 7.63544 47.6131 5.82447 45.097 5.82447H40.6454V13.0684H45.097Z"
          fill="#323E48"/>
    <path d="M52.7422 14.403C52.7422 10.6857 55.3551 7.73096 59.4196 7.73096C63.5809 7.73096 65.6132 11.1623 65.6132 14.5936V15.2608H55.6454C56.0325 17.453 57.968 18.6921 60.5809 18.6921C62.2261 18.6921 63.5809 18.2156 64.7422 17.5483V19.9312C63.6777 20.6937 61.9357 21.1703 60.0002 21.1703C55.9357 21.1703 52.7422 18.5015 52.7422 14.403ZM62.7099 13.0686C62.7099 11.7342 61.6454 10.0185 59.3228 10.0185C57.097 10.0185 55.839 11.5435 55.7422 13.0686H62.7099Z"
          fill="#323E48"/>
    <path d="M68.1289 8.0166H71.0321V12.973H77.6128V8.0166H80.516V20.7887H77.6128V15.4511H71.0321V20.7887H68.1289V8.0166Z"
          fill="#323E48"/>
    <path d="M82.9355 14.403C82.9355 10.6857 85.5485 7.73096 89.613 7.73096C93.7743 7.73096 95.8065 11.1623 95.8065 14.5936V15.2608H85.8388C86.2259 17.453 88.1614 18.6921 90.7743 18.6921C92.4194 18.6921 93.7743 18.2156 94.9356 17.5484V19.9312C93.871 20.6937 92.1291 21.1703 90.1936 21.1703C86.1291 21.1703 82.9355 18.5015 82.9355 14.403ZM92.9033 13.0686C92.9033 11.7342 91.8388 10.0185 89.5162 10.0185C87.2904 10.0185 86.0323 11.5435 85.9356 13.0686H92.9033Z"
          fill="#323E48"/>
    <path d="M97.4512 14.403C97.4512 10.3998 100.645 7.73096 104.516 7.73096C106.064 7.73096 107.225 8.0169 108.387 8.58879V10.9716C107.225 10.3998 106.161 10.1138 104.903 10.1138C102.387 10.1138 100.258 11.8295 100.258 14.403C100.258 16.9765 102.29 18.6921 104.903 18.6921C106.354 18.6921 107.516 18.4062 108.58 17.739V20.1218C107.322 20.789 106.064 21.1703 104.419 21.1703C100.645 21.1703 97.4512 18.4062 97.4512 14.403Z"
          fill="#323E48"/>
    <path d="M110.033 14.403C110.033 10.3998 113.227 7.73096 117.098 7.73096C118.646 7.73096 119.807 8.0169 120.969 8.58879V10.9716C119.807 10.3998 118.743 10.1138 117.485 10.1138C114.969 10.1138 112.84 11.8295 112.84 14.403C112.84 16.9765 114.872 18.6921 117.485 18.6921C118.936 18.6921 120.098 18.4062 121.162 17.739V20.1218C119.904 20.789 118.646 21.1703 117.001 21.1703C113.324 21.1703 110.033 18.4062 110.033 14.403Z"
          fill="#323E48"/>
    <path d="M137.033 18.4062V20.5031C136.646 20.789 135.969 20.8844 135.388 20.8844C134.13 20.8844 133.065 20.3125 132.678 19.0734C131.711 20.1218 130.162 21.075 127.936 21.075C125.227 21.075 123.098 19.55 123.098 16.7858C123.098 13.9264 125.227 13.0686 128.033 13.0686C129.969 13.0686 132.485 13.0686 132.485 13.0686V12.8779C132.485 10.6857 130.646 10.1138 128.711 10.1138C127.162 10.1138 125.614 10.6857 124.646 11.2576V8.77942C125.614 8.30284 127.065 7.73096 129.388 7.73096C132.872 7.73096 135.388 9.3513 135.388 12.592V17.3577C135.388 18.1202 135.872 18.5968 136.452 18.5968C136.452 18.5968 136.743 18.5968 137.033 18.4062ZM132.291 15.2608C132.291 15.2608 130.259 15.2608 128.904 15.2608C127.065 15.2608 125.807 15.6421 125.807 16.8811C125.807 18.3109 127.065 18.7874 128.614 18.7874C130.162 18.7874 131.614 18.0249 132.291 17.2624V15.2608Z"
          fill="#323E48"/>
    <path d="M139.064 8.0166H141.968V12.973H148.548V8.0166H151.452V20.7887H148.548V15.4511H141.968V20.7887H139.064V8.0166Z"
          fill="#323E48"/>
    <path d="M153.871 14.403C153.871 10.3998 157.065 7.73096 160.936 7.73096C162.484 7.73096 163.645 8.0169 164.807 8.58879V10.9716C163.645 10.3998 162.581 10.1138 161.323 10.1138C158.807 10.1138 156.678 11.8295 156.678 14.403C156.678 16.9765 158.71 18.6921 161.323 18.6921C162.774 18.6921 163.936 18.4062 165 17.739V20.1218C163.742 20.789 162.484 21.1703 160.839 21.1703C157.065 21.1703 153.871 18.4062 153.871 14.403Z"
          fill="#323E48"/>
    <path d="M37.7422 27.6514H39.097V30.1295L41.4196 27.6514H43.0648L40.3551 30.5108L43.5486 33.9421H41.9035L39.1938 31.0827V33.9421H37.7422V27.6514Z"
          fill="#323E48"/>
    <path d="M45.291 27.6514H48.0975C49.4523 27.6514 50.3233 28.4139 50.3233 29.5577C50.3233 30.7014 49.4523 31.4639 48.0975 31.4639H46.6459V33.9421H45.291V27.6514ZM48.0007 30.3202C48.5813 30.3202 48.9684 30.0342 48.9684 29.5577C48.9684 29.0811 48.5813 28.7951 48.0007 28.7951H46.6459V30.3202H48.0007Z"
          fill="#323E48"/>
    <path d="M52.2578 27.6514H56.903V28.7951H53.5159V30.0342H56.2256V31.178H53.5159V32.7984H57.0965V33.9421H52.2578V27.6514Z"
          fill="#323E48"/>
    <path d="M58.839 32.7987H59.4196C60.0003 31.9409 60.2906 30.7971 60.2906 28.7002V27.7471H64.7422V32.8941H65.6132V35.3722H64.3551V34.1331H60.0003V35.3722H58.7422V32.7987H58.839ZM63.4841 32.7987V28.7955H61.6454C61.6454 30.1299 61.5486 31.4643 60.968 32.7987H63.4841Z"
          fill="#323E48"/>
    <path d="M67.6445 27.6514H68.9994V31.7499L72.0961 27.6514H73.2574V33.9421H71.9994V29.8436L68.709 33.9421H67.6445V27.6514Z"
          fill="#323E48"/>
    <path d="M80.4193 27.6514V28.7951H78.3871V33.9421H77.0323V28.7951H75V27.6514H80.4193Z" fill="#323E48"/>
    <path d="M4.51751 34.2711H0V14.9873C0 8.42032 5.46304 3 12.0817 3H27V14.883C27 21.5542 21.537 26.8703 14.9183 26.8703H7.35409L9.03502 22.3881H14.8132C19.0156 22.3881 22.3774 19.0525 22.3774 14.883V7.48219H11.9767C7.77432 7.48219 4.41245 10.8178 4.41245 14.9873V34.2711H4.51751Z"
          fill="#D41367"/>
</svg>
